<?xml version="1.0" standalone="no"?>
<!DOCTYPE svg PUBLIC "-//W3C//DTD SVG 20010904//EN"
 "http://www.w3.org/TR/2001/REC-SVG-20010904/DTD/svg10.dtd">
<svg version="1.0" xmlns="http://www.w3.org/2000/svg"
 width="176.000000pt" height="176.000000pt" viewBox="0 0 176.000000 176.000000"
 preserveAspectRatio="xMidYMid meet">
<metadata>
Created by potrace 1.14, written by Peter Selinger 2001-2017
</metadata>
<g transform="translate(0.000000,176.000000) scale(0.100000,-0.100000)"
fill="#000000" stroke="none">
<path d="M437 1746 c-8 -8 -17 -32 -20 -53 -4 -21 -20 -111 -35 -200 -16 -90
-27 -163 -24 -163 3 0 28 17 57 39 146 110 344 156 517 120 73 -15 191 -71
255 -121 29 -22 55 -39 58 -36 3 3 -10 88 -38 238 -3 14 -10 54 -17 90 -20
110 19 100 -385 100 -294 0 -356 -2 -368 -14z"/>
<path d="M677 1436 c-256 -58 -446 -293 -447 -553 0 -99 15 -164 61 -259 133
-281 483 -399 764 -259 129 65 224 169 281 310 24 60 28 86 31 185 2 103 0
123 -25 195 -95 280 -382 444 -665 381z m331 -121 c94 -45 185 -133 230 -226
176 -362 -145 -770 -540 -688 -227 47 -398 272 -382 502 10 152 77 275 196
363 146 107 333 126 496 49z"/>
<path d="M675 1286 c-159 -51 -284 -195 -297 -342 -3 -38 -2 -39 30 -40 64 -1
65 -54 1 -54 -39 0 -39 0 -34 -32 16 -96 58 -179 124 -243 62 -61 119 -94 191
-111 75 -18 80 -18 80 10 0 37 10 56 30 56 20 0 30 -19 30 -56 0 -28 12 -30
88 -10 155 42 283 185 307 345 l6 41 -34 0 c-63 0 -71 50 -8 52 17 1 34 5 37
10 10 16 -27 133 -59 187 -61 102 -178 182 -285 197 l-52 7 0 -30 c0 -62 -53
-67 -55 -5 -1 22 -7 27 -31 29 -16 1 -47 -4 -69 -11z m385 -180 c0 -17 -243
-256 -260 -256 -25 0 -173 154 -168 176 7 38 37 26 104 -39 l66 -65 101 100
c56 54 108 103 116 108 17 9 41 -5 41 -24z"/>
<path d="M1416 1012 c-3 -4 -1 -24 3 -43 7 -33 7 -85 0 -184 l-3 -50 43 1 c71
1 85 24 85 140 1 93 0 97 -27 120 -28 24 -90 34 -101 16z"/>
<path d="M354 393 c3 -21 9 -63 15 -93 41 -225 51 -273 62 -286 17 -20 711
-21 728 -1 16 20 88 403 78 414 -3 2 -29 -14 -59 -38 -214 -170 -538 -172
-759 -4 -32 25 -62 45 -65 45 -3 0 -3 -17 0 -37z"/>
</g>
</svg>
